<?xml version="1.0" encoding="utf-8"?>
<!-- Generator: Adobe Illustrator 24.1.1, SVG Export Plug-In . SVG Version: 6.00 Build 0)  -->
<svg version="1.1" id="Layer_1" xmlns="http://www.w3.org/2000/svg" xmlns:xlink="http://www.w3.org/1999/xlink" x="0px" y="0px"
	 viewBox="0 0 512 512" style="enable-background:new 0 0 512 512;" xml:space="preserve">
<g>
	<path d="M6.2,36.4l469.3,469.3c8.3,8.3,21.8,8.3,30.2,0c8.3-8.3,8.3-21.8,0-30.2L36.4,6.2c-8.3-8.3-21.8-8.3-30.2,0
		C-2.1,14.6-2.1,28.1,6.2,36.4"/>
	<path d="M448,426.7H64c-11.8,0-21.3-9.6-21.3-21.3V170.7c0-11.8,9.6-21.3,21.3-21.3h64c11.8,0,21.3-9.6,21.3-21.3
		c0-11.8-9.6-21.3-21.3-21.3l-64,0c-35.4,0-64,28.6-64,64v234.7c0,35.4,28.6,64,64,64h384c11.8,0,21.3-9.6,21.3-21.3
		C469.3,436.2,459.8,426.7,448,426.7L448,426.7z M192,85.3h116.6l36.3,54.5c4,5.9,10.6,9.5,17.8,9.5H448c11.8,0,21.3,9.6,21.3,21.3
		v199.2c0,11.8,9.6,21.3,21.3,21.3c11.8,0,21.3-9.6,21.3-21.3l0-199.2c0-35.4-28.6-64-64-64h-73.9l-36.3-54.5
		c-4-5.9-10.6-9.5-17.8-9.5H192c-11.8,0-21.3,9.6-21.3,21.3C170.7,75.8,180.2,85.3,192,85.3L192,85.3z M308.4,313.9
		c-12.4,18.2-32.4,27.8-52.9,27.9c-12.5,0-24.9-3.6-36.1-11.2l0,0c-18.2-12.4-27.8-32.4-27.9-52.9c0-12.5,3.6-24.9,11.2-36.1l0,0
		c4.5-6.5,10.1-12.2,16.7-16.7c9.7-6.7,12.2-19.9,5.6-29.7c-6.7-9.7-19.9-12.2-29.7-5.6c-10.9,7.5-20.3,16.9-27.8,27.8l0,0
		c-12.6,18.4-18.7,39.4-18.6,60.2c0,33.9,16.3,67.5,46.4,88.1l0,0c18.4,12.6,39.4,18.7,60.2,18.6c33.9,0,67.5-16.3,88.1-46.4
		c6.7-9.7,4.2-23-5.6-29.7C328.3,301.7,315,304.2,308.4,313.9L308.4,313.9z"/>
</g>
</svg>
